<svg width="344" height="160" viewBox="0 0 344 160" fill="none" xmlns="http://www.w3.org/2000/svg">
<mask id="path-1-outside-1_627_67" maskUnits="userSpaceOnUse" x="2" y="10" width="332" height="50" fill="black">
<rect fill="white" x="2" y="10" width="332" height="50"/>
<path d="M46.464 59H32L20.288 41.976C20.0747 41.6773 19.904 41.2293 19.776 40.632C19.648 40.0347 19.5627 39.2453 19.52 38.264H19.2V59H3.84V11H18.304L30.016 28.024C30.2293 28.3227 30.4 28.7707 30.528 29.368C30.656 29.9653 30.7413 30.7547 30.784 31.736H31.104V11H46.464V59ZM98.9525 29.752V40.888H83.5925V46.712H102.409V59H68.2325V11H102.025L100.105 23.288H83.5925V29.752H98.9525ZM119.16 11H136.568L141.88 23.8H142.648L147.96 11H164.6L153.976 34.168L164.6 59H147.576L141.816 45.176H141.112L135.416 59H119.16L129.592 34.68L119.16 11ZM216.694 11V23.288H205.558V59H190.198V23.288H179.062V11H216.694ZM265.693 29.752V40.888H250.333V46.712H269.149V59H234.973V11H268.765L266.845 23.288H250.333V29.752H265.693ZM323.276 43L331.596 59H314.7L308.428 44.728H305.1V59H289.74V11H313.932C324.94 11 330.444 16.6107 330.444 27.832C330.444 35.512 328.055 40.568 323.276 43ZM308.62 23.288H305.1V32.888H308.62C310.497 32.888 311.841 32.696 312.652 32.312C313.505 31.928 313.932 31.0533 313.932 29.688V26.488C313.932 25.1227 313.505 24.248 312.652 23.864C311.841 23.48 310.497 23.288 308.62 23.288Z"/>
</mask>
<path d="M46.464 59H32L20.288 41.976C20.0747 41.6773 19.904 41.2293 19.776 40.632C19.648 40.0347 19.5627 39.2453 19.52 38.264H19.2V59H3.84V11H18.304L30.016 28.024C30.2293 28.3227 30.4 28.7707 30.528 29.368C30.656 29.9653 30.7413 30.7547 30.784 31.736H31.104V11H46.464V59ZM98.9525 29.752V40.888H83.5925V46.712H102.409V59H68.2325V11H102.025L100.105 23.288H83.5925V29.752H98.9525ZM119.16 11H136.568L141.88 23.8H142.648L147.96 11H164.6L153.976 34.168L164.6 59H147.576L141.816 45.176H141.112L135.416 59H119.16L129.592 34.68L119.16 11ZM216.694 11V23.288H205.558V59H190.198V23.288H179.062V11H216.694ZM265.693 29.752V40.888H250.333V46.712H269.149V59H234.973V11H268.765L266.845 23.288H250.333V29.752H265.693ZM323.276 43L331.596 59H314.7L308.428 44.728H305.1V59H289.74V11H313.932C324.94 11 330.444 16.6107 330.444 27.832C330.444 35.512 328.055 40.568 323.276 43ZM308.62 23.288H305.1V32.888H308.62C310.497 32.888 311.841 32.696 312.652 32.312C313.505 31.928 313.932 31.0533 313.932 29.688V26.488C313.932 25.1227 313.505 24.248 312.652 23.864C311.841 23.48 310.497 23.288 308.62 23.288Z" fill="#AD88C6"/>
<path d="M46.464 59V60H47.464V59H46.464ZM32 59L31.1761 59.5668L31.4742 60H32V59ZM20.288 41.976L21.1119 41.4092L21.1069 41.4019L21.1017 41.3948L20.288 41.976ZM19.776 40.632L18.7982 40.8415L18.7982 40.8415L19.776 40.632ZM19.52 38.264L20.5191 38.2206L20.4775 37.264H19.52V38.264ZM19.2 38.264V37.264H18.2V38.264H19.2ZM19.2 59V60H20.2V59H19.2ZM3.84 59H2.84V60H3.84V59ZM3.84 11V10H2.84V11H3.84ZM18.304 11L19.1279 10.4332L18.8298 10H18.304V11ZM30.016 28.024L29.1921 28.5908L29.1971 28.5981L29.2023 28.6052L30.016 28.024ZM30.784 31.736L29.7849 31.7794L29.8265 32.736H30.784V31.736ZM31.104 31.736V32.736H32.104V31.736H31.104ZM31.104 11V10H30.104V11H31.104ZM46.464 11H47.464V10H46.464V11ZM46.464 58H32V60H46.464V58ZM32.8239 58.4332L21.1119 41.4092L19.4641 42.5428L31.1761 59.5668L32.8239 58.4332ZM21.1017 41.3948C21.0038 41.2576 20.8697 40.9633 20.7538 40.4225L18.7982 40.8415C18.9383 41.4953 19.1456 42.0971 19.4743 42.5572L21.1017 41.3948ZM20.7538 40.4225C20.6424 39.9024 20.5606 39.1753 20.5191 38.2206L18.5209 38.3074C18.5648 39.3154 18.6536 40.1669 18.7982 40.8415L20.7538 40.4225ZM19.52 37.264H19.2V39.264H19.52V37.264ZM18.2 38.264V59H20.2V38.264H18.2ZM19.2 58H3.84V60H19.2V58ZM4.84 59V11H2.84V59H4.84ZM3.84 12H18.304V10H3.84V12ZM17.4801 11.5668L29.1921 28.5908L30.8399 27.4572L19.1279 10.4332L17.4801 11.5668ZM29.2023 28.6052C29.3003 28.7424 29.4343 29.0366 29.5502 29.5775L31.5058 29.1585C31.3657 28.5047 31.1584 27.9029 30.8297 27.4428L29.2023 28.6052ZM29.5502 29.5775C29.6616 30.0976 29.7434 30.8247 29.7849 31.7794L31.7831 31.6926C31.7392 30.6846 31.6504 29.8331 31.5058 29.1585L29.5502 29.5775ZM30.784 32.736H31.104V30.736H30.784V32.736ZM32.104 31.736V11H30.104V31.736H32.104ZM31.104 12H46.464V10H31.104V12ZM45.464 11V59H47.464V11H45.464ZM98.9525 29.752H99.9525V28.752H98.9525V29.752ZM98.9525 40.888V41.888H99.9525V40.888H98.9525ZM83.5925 40.888V39.888H82.5925V40.888H83.5925ZM83.5925 46.712H82.5925V47.712H83.5925V46.712ZM102.409 46.712H103.409V45.712H102.409V46.712ZM102.409 59V60H103.409V59H102.409ZM68.2325 59H67.2325V60H68.2325V59ZM68.2325 11V10H67.2325V11H68.2325ZM102.025 11L103.013 11.1544L103.193 10H102.025V11ZM100.105 23.288V24.288H100.96L101.093 23.4424L100.105 23.288ZM83.5925 23.288V22.288H82.5925V23.288H83.5925ZM83.5925 29.752H82.5925V30.752H83.5925V29.752ZM97.9525 29.752V40.888H99.9525V29.752H97.9525ZM98.9525 39.888H83.5925V41.888H98.9525V39.888ZM82.5925 40.888V46.712H84.5925V40.888H82.5925ZM83.5925 47.712H102.409V45.712H83.5925V47.712ZM101.409 46.712V59H103.409V46.712H101.409ZM102.409 58H68.2325V60H102.409V58ZM69.2325 59V11H67.2325V59H69.2325ZM68.2325 12H102.025V10H68.2325V12ZM101.036 10.8456L99.1165 23.1336L101.093 23.4424L103.013 11.1544L101.036 10.8456ZM100.105 22.288H83.5925V24.288H100.105V22.288ZM82.5925 23.288V29.752H84.5925V23.288H82.5925ZM83.5925 30.752H98.9525V28.752H83.5925V30.752ZM119.16 11V10H117.627L118.245 11.4031L119.16 11ZM136.568 11L137.492 10.6167L137.236 10H136.568V11ZM141.88 23.8L140.956 24.1833L141.212 24.8H141.88V23.8ZM142.648 23.8V24.8H143.316L143.572 24.1833L142.648 23.8ZM147.96 11V10H147.292L147.036 10.6167L147.96 11ZM164.6 11L165.509 11.4168L166.159 10H164.6V11ZM153.976 34.168L153.067 33.7512L152.882 34.154L153.057 34.5613L153.976 34.168ZM164.6 59V60H166.116L165.519 58.6067L164.6 59ZM147.576 59L146.653 59.3846L146.909 60H147.576V59ZM141.816 45.176L142.739 44.7914L142.483 44.176H141.816V45.176ZM141.112 45.176V44.176H140.442L140.187 44.795L141.112 45.176ZM135.416 59V60H136.086L136.341 59.381L135.416 59ZM119.16 59L118.241 58.6058L117.643 60H119.16V59ZM129.592 34.68L130.511 35.0742L130.682 34.6747L130.507 34.2768L129.592 34.68ZM119.16 12H136.568V10H119.16V12ZM135.644 11.3833L140.956 24.1833L142.804 23.4167L137.492 10.6167L135.644 11.3833ZM141.88 24.8H142.648V22.8H141.88V24.8ZM143.572 24.1833L148.884 11.3833L147.036 10.6167L141.724 23.4167L143.572 24.1833ZM147.96 12H164.6V10H147.96V12ZM163.691 10.5832L153.067 33.7512L154.885 34.5848L165.509 11.4168L163.691 10.5832ZM153.057 34.5613L163.681 59.3933L165.519 58.6067L154.895 33.7747L153.057 34.5613ZM164.6 58H147.576V60H164.6V58ZM148.499 58.6154L142.739 44.7914L140.893 45.5606L146.653 59.3846L148.499 58.6154ZM141.816 44.176H141.112V46.176H141.816V44.176ZM140.187 44.795L134.491 58.619L136.341 59.381L142.037 45.557L140.187 44.795ZM135.416 58H119.16V60H135.416V58ZM120.079 59.3942L130.511 35.0742L128.673 34.2858L118.241 58.6058L120.079 59.3942ZM130.507 34.2768L120.075 10.5968L118.245 11.4031L128.677 35.0832L130.507 34.2768ZM216.694 11H217.694V10H216.694V11ZM216.694 23.288V24.288H217.694V23.288H216.694ZM205.558 23.288V22.288H204.558V23.288H205.558ZM205.558 59V60H206.558V59H205.558ZM190.198 59H189.198V60H190.198V59ZM190.198 23.288H191.198V22.288H190.198V23.288ZM179.062 23.288H178.062V24.288H179.062V23.288ZM179.062 11V10H178.062V11H179.062ZM215.694 11V23.288H217.694V11H215.694ZM216.694 22.288H205.558V24.288H216.694V22.288ZM204.558 23.288V59H206.558V23.288H204.558ZM205.558 58H190.198V60H205.558V58ZM191.198 59V23.288H189.198V59H191.198ZM190.198 22.288H179.062V24.288H190.198V22.288ZM180.062 23.288V11H178.062V23.288H180.062ZM179.062 12H216.694V10H179.062V12ZM265.693 29.752H266.693V28.752H265.693V29.752ZM265.693 40.888V41.888H266.693V40.888H265.693ZM250.333 40.888V39.888H249.333V40.888H250.333ZM250.333 46.712H249.333V47.712H250.333V46.712ZM269.149 46.712H270.149V45.712H269.149V46.712ZM269.149 59V60H270.149V59H269.149ZM234.973 59H233.973V60H234.973V59ZM234.973 11V10H233.973V11H234.973ZM268.765 11L269.753 11.1544L269.933 10H268.765V11ZM266.845 23.288V24.288H267.7L267.833 23.4424L266.845 23.288ZM250.333 23.288V22.288H249.333V23.288H250.333ZM250.333 29.752H249.333V30.752H250.333V29.752ZM264.693 29.752V40.888H266.693V29.752H264.693ZM265.693 39.888H250.333V41.888H265.693V39.888ZM249.333 40.888V46.712H251.333V40.888H249.333ZM250.333 47.712H269.149V45.712H250.333V47.712ZM268.149 46.712V59H270.149V46.712H268.149ZM269.149 58H234.973V60H269.149V58ZM235.973 59V11H233.973V59H235.973ZM234.973 12H268.765V10H234.973V12ZM267.776 10.8456L265.856 23.1336L267.833 23.4424L269.753 11.1544L267.776 10.8456ZM266.845 22.288H250.333V24.288H266.845V22.288ZM249.333 23.288V29.752H251.333V23.288H249.333ZM250.333 30.752H265.693V28.752H250.333V30.752ZM323.276 43L322.822 42.1088L321.923 42.5663L322.389 43.4614L323.276 43ZM331.596 59V60H333.243L332.483 58.5386L331.596 59ZM314.7 59L313.784 59.4023L314.047 60H314.7V59ZM308.428 44.728L309.343 44.3257L309.081 43.728H308.428V44.728ZM305.1 44.728V43.728H304.1V44.728H305.1ZM305.1 59V60H306.1V59H305.1ZM289.74 59H288.74V60H289.74V59ZM289.74 11V10H288.74V11H289.74ZM305.1 23.288V22.288H304.1V23.288H305.1ZM305.1 32.888H304.1V33.888H305.1V32.888ZM312.652 32.312L312.242 31.4001L312.233 31.4041L312.224 31.4083L312.652 32.312ZM312.652 23.864L312.224 24.7677L312.233 24.7719L312.242 24.7759L312.652 23.864ZM322.389 43.4614L330.709 59.4614L332.483 58.5386L324.163 42.5386L322.389 43.4614ZM331.596 58H314.7V60H331.596V58ZM315.615 58.5977L309.343 44.3257L307.512 45.1303L313.784 59.4023L315.615 58.5977ZM308.428 43.728H305.1V45.728H308.428V43.728ZM304.1 44.728V59H306.1V44.728H304.1ZM305.1 58H289.74V60H305.1V58ZM290.74 59V11H288.74V59H290.74ZM289.74 12H313.932V10H289.74V12ZM313.932 12C319.277 12 323.103 13.3608 325.602 15.9083C328.105 18.4593 329.444 22.3707 329.444 27.832H331.444C331.444 22.072 330.031 17.5673 327.03 14.5077C324.025 11.4445 319.595 10 313.932 10V12ZM329.444 27.832C329.444 35.3202 327.128 39.9175 322.822 42.1088L323.73 43.8912C328.981 41.2185 331.444 35.7038 331.444 27.832H329.444ZM308.62 22.288H305.1V24.288H308.62V22.288ZM304.1 23.288V32.888H306.1V23.288H304.1ZM305.1 33.888H308.62V31.888H305.1V33.888ZM308.62 33.888C310.518 33.888 312.055 33.7013 313.08 33.2157L312.224 31.4083C311.628 31.6907 310.477 31.888 308.62 31.888V33.888ZM313.062 33.2239C314.432 32.6076 314.932 31.2389 314.932 29.688H312.932C312.932 30.8678 312.579 31.2484 312.242 31.4001L313.062 33.2239ZM314.932 29.688V26.488H312.932V29.688H314.932ZM314.932 26.488C314.932 24.9371 314.432 23.5684 313.062 22.9521L312.242 24.7759C312.579 24.9276 312.932 25.3082 312.932 26.488H314.932ZM313.08 22.9603C312.055 22.4747 310.518 22.288 308.62 22.288V24.288C310.477 24.288 311.628 24.4853 312.224 24.7677L313.08 22.9603Z" fill="#AD88C6" mask="url(#path-1-outside-1_627_67)"/>
<g filter="url(#filter0_d_627_67)">
<mask id="path-3-outside-2_627_67" maskUnits="userSpaceOnUse" x="9" y="9" width="334" height="52" fill="black">
<rect fill="white" x="9" y="9" width="334" height="52"/>
<path d="M54.464 59H40L28.288 41.976C28.0747 41.6773 27.904 41.2293 27.776 40.632C27.648 40.0347 27.5627 39.2453 27.52 38.264H27.2V59H11.84V11H26.304L38.016 28.024C38.2293 28.3227 38.4 28.7707 38.528 29.368C38.656 29.9653 38.7413 30.7547 38.784 31.736H39.104V11H54.464V59ZM106.953 29.752V40.888H91.5925V46.712H110.409V59H76.2325V11H110.025L108.105 23.288H91.5925V29.752H106.953ZM127.16 11H144.568L149.88 23.8H150.648L155.96 11H172.6L161.976 34.168L172.6 59H155.576L149.816 45.176H149.112L143.416 59H127.16L137.592 34.68L127.16 11ZM224.694 11V23.288H213.558V59H198.198V23.288H187.062V11H224.694ZM273.693 29.752V40.888H258.333V46.712H277.149V59H242.973V11H276.765L274.845 23.288H258.333V29.752H273.693ZM331.276 43L339.596 59H322.7L316.428 44.728H313.1V59H297.74V11H321.932C332.94 11 338.444 16.6107 338.444 27.832C338.444 35.512 336.055 40.568 331.276 43ZM316.62 23.288H313.1V32.888H316.62C318.497 32.888 319.841 32.696 320.652 32.312C321.505 31.928 321.932 31.0533 321.932 29.688V26.488C321.932 25.1227 321.505 24.248 320.652 23.864C319.841 23.48 318.497 23.288 316.62 23.288Z"/>
</mask>
<path d="M54.464 59H40L28.288 41.976C28.0747 41.6773 27.904 41.2293 27.776 40.632C27.648 40.0347 27.5627 39.2453 27.52 38.264H27.2V59H11.84V11H26.304L38.016 28.024C38.2293 28.3227 38.4 28.7707 38.528 29.368C38.656 29.9653 38.7413 30.7547 38.784 31.736H39.104V11H54.464V59ZM106.953 29.752V40.888H91.5925V46.712H110.409V59H76.2325V11H110.025L108.105 23.288H91.5925V29.752H106.953ZM127.16 11H144.568L149.88 23.8H150.648L155.96 11H172.6L161.976 34.168L172.6 59H155.576L149.816 45.176H149.112L143.416 59H127.16L137.592 34.68L127.16 11ZM224.694 11V23.288H213.558V59H198.198V23.288H187.062V11H224.694ZM273.693 29.752V40.888H258.333V46.712H277.149V59H242.973V11H276.765L274.845 23.288H258.333V29.752H273.693ZM331.276 43L339.596 59H322.7L316.428 44.728H313.1V59H297.74V11H321.932C332.94 11 338.444 16.6107 338.444 27.832C338.444 35.512 336.055 40.568 331.276 43ZM316.62 23.288H313.1V32.888H316.62C318.497 32.888 319.841 32.696 320.652 32.312C321.505 31.928 321.932 31.0533 321.932 29.688V26.488C321.932 25.1227 321.505 24.248 320.652 23.864C319.841 23.48 318.497 23.288 316.62 23.288Z" fill="white"/>
<path d="M54.464 59V61H56.464V59H54.464ZM40 59L38.3523 60.1336L38.9483 61H40V59ZM28.288 41.976L29.9357 40.8424L29.9257 40.8279L29.9155 40.8135L28.288 41.976ZM27.776 40.632L25.8204 41.0511L25.8204 41.0511L27.776 40.632ZM27.52 38.264L29.5181 38.1771L29.4349 36.264H27.52V38.264ZM27.2 38.264V36.264H25.2V38.264H27.2ZM27.2 59V61H29.2V59H27.2ZM11.84 59H9.84V61H11.84V59ZM11.84 11V9H9.84V11H11.84ZM26.304 11L27.9517 9.86641L27.3557 9H26.304V11ZM38.016 28.024L36.3683 29.1576L36.3783 29.1721L36.3885 29.1865L38.016 28.024ZM38.784 31.736L36.7859 31.8229L36.8691 33.736H38.784V31.736ZM39.104 31.736V33.736H41.104V31.736H39.104ZM39.104 11V9H37.104V11H39.104ZM54.464 11H56.464V9H54.464V11ZM54.464 57H40V61H54.464V57ZM41.6477 57.8664L29.9357 40.8424L26.6403 43.1096L38.3523 60.1336L41.6477 57.8664ZM29.9155 40.8135C29.9332 40.8383 29.9109 40.814 29.869 40.704C29.8282 40.597 29.7797 40.4375 29.7316 40.2129L25.8204 41.0511C25.9726 41.7613 26.2165 42.5168 26.6605 43.1385L29.9155 40.8135ZM29.7316 40.2129C29.6367 39.7702 29.5585 39.1052 29.5181 38.1771L25.5219 38.3509C25.5669 39.3855 25.6593 40.2991 25.8204 41.0511L29.7316 40.2129ZM27.52 36.264H27.2V40.264H27.52V36.264ZM25.2 38.264V59H29.2V38.264H25.2ZM27.2 57H11.84V61H27.2V57ZM13.84 59V11H9.84V59H13.84ZM11.84 13H26.304V9H11.84V13ZM24.6563 12.1336L36.3683 29.1576L39.6637 26.8904L27.9517 9.86641L24.6563 12.1336ZM36.3885 29.1865C36.3708 29.1617 36.3931 29.186 36.435 29.296C36.4758 29.403 36.5243 29.5625 36.5724 29.7871L40.4836 28.9489C40.3314 28.2387 40.0875 27.4832 39.6435 26.8615L36.3885 29.1865ZM36.5724 29.7871C36.6673 30.2298 36.7455 30.8948 36.7859 31.8229L40.7821 31.6491C40.7371 30.6145 40.6447 29.7009 40.4836 28.9489L36.5724 29.7871ZM38.784 33.736H39.104V29.736H38.784V33.736ZM41.104 31.736V11H37.104V31.736H41.104ZM39.104 13H54.464V9H39.104V13ZM52.464 11V59H56.464V11H52.464ZM106.953 29.752H108.953V27.752H106.953V29.752ZM106.953 40.888V42.888H108.953V40.888H106.953ZM91.5925 40.888V38.888H89.5925V40.888H91.5925ZM91.5925 46.712H89.5925V48.712H91.5925V46.712ZM110.409 46.712H112.409V44.712H110.409V46.712ZM110.409 59V61H112.409V59H110.409ZM76.2325 59H74.2325V61H76.2325V59ZM76.2325 11V9H74.2325V11H76.2325ZM110.025 11L112.001 11.3087L112.361 9H110.025V11ZM108.105 23.288V25.288H109.816L110.081 23.5968L108.105 23.288ZM91.5925 23.288V21.288H89.5925V23.288H91.5925ZM91.5925 29.752H89.5925V31.752H91.5925V29.752ZM104.953 29.752V40.888H108.953V29.752H104.953ZM106.953 38.888H91.5925V42.888H106.953V38.888ZM89.5925 40.888V46.712H93.5925V40.888H89.5925ZM91.5925 48.712H110.409V44.712H91.5925V48.712ZM108.409 46.712V59H112.409V46.712H108.409ZM110.409 57H76.2325V61H110.409V57ZM78.2325 59V11H74.2325V59H78.2325ZM76.2325 13H110.025V9H76.2325V13ZM108.048 10.6912L106.128 22.9792L110.081 23.5968L112.001 11.3087L108.048 10.6912ZM108.105 21.288H91.5925V25.288H108.105V21.288ZM89.5925 23.288V29.752H93.5925V23.288H89.5925ZM91.5925 31.752H106.953V27.752H91.5925V31.752ZM127.16 11V9H124.093L125.33 11.8063L127.16 11ZM144.568 11L146.415 10.2334L145.903 9H144.568V11ZM149.88 23.8L148.033 24.5666L148.545 25.8H149.88V23.8ZM150.648 23.8V25.8H151.983L152.495 24.5666L150.648 23.8ZM155.96 11V9H154.625L154.113 10.2334L155.96 11ZM172.6 11L174.418 11.8337L175.717 9H172.6V11ZM161.976 34.168L160.158 33.3343L159.789 34.1399L160.137 34.9547L161.976 34.168ZM172.6 59V61H175.631L174.439 58.2133L172.6 59ZM155.576 59L153.73 59.7692L154.243 61H155.576V59ZM149.816 45.176L151.662 44.4068L151.149 43.176H149.816V45.176ZM149.112 45.176V43.176H147.773L147.263 44.4141L149.112 45.176ZM143.416 59V61H144.755L145.265 59.7619L143.416 59ZM127.16 59L125.322 58.2116L124.126 61H127.16V59ZM137.592 34.68L139.43 35.4684L139.773 34.6694L139.422 33.8737L137.592 34.68ZM127.16 13H144.568V9H127.16V13ZM142.721 11.7666L148.033 24.5666L151.727 23.0334L146.415 10.2334L142.721 11.7666ZM149.88 25.8H150.648V21.8H149.88V25.8ZM152.495 24.5666L157.807 11.7666L154.113 10.2334L148.801 23.0334L152.495 24.5666ZM155.96 13H172.6V9H155.96V13ZM170.782 10.1663L160.158 33.3343L163.794 35.0017L174.418 11.8337L170.782 10.1663ZM160.137 34.9547L170.761 59.7867L174.439 58.2133L163.815 33.3813L160.137 34.9547ZM172.6 57H155.576V61H172.6V57ZM157.422 58.2308L151.662 44.4068L147.97 45.9452L153.73 59.7692L157.422 58.2308ZM149.816 43.176H149.112V47.176H149.816V43.176ZM147.263 44.4141L141.567 58.2381L145.265 59.7619L150.961 45.9379L147.263 44.4141ZM143.416 57H127.16V61H143.416V57ZM128.998 59.7884L139.43 35.4684L135.754 33.8916L125.322 58.2116L128.998 59.7884ZM139.422 33.8737L128.99 10.1937L125.33 11.8063L135.762 35.4863L139.422 33.8737ZM224.694 11H226.694V9H224.694V11ZM224.694 23.288V25.288H226.694V23.288H224.694ZM213.558 23.288V21.288H211.558V23.288H213.558ZM213.558 59V61H215.558V59H213.558ZM198.198 59H196.198V61H198.198V59ZM198.198 23.288H200.198V21.288H198.198V23.288ZM187.062 23.288H185.062V25.288H187.062V23.288ZM187.062 11V9H185.062V11H187.062ZM222.694 11V23.288H226.694V11H222.694ZM224.694 21.288H213.558V25.288H224.694V21.288ZM211.558 23.288V59H215.558V23.288H211.558ZM213.558 57H198.198V61H213.558V57ZM200.198 59V23.288H196.198V59H200.198ZM198.198 21.288H187.062V25.288H198.198V21.288ZM189.062 23.288V11H185.062V23.288H189.062ZM187.062 13H224.694V9H187.062V13ZM273.693 29.752H275.693V27.752H273.693V29.752ZM273.693 40.888V42.888H275.693V40.888H273.693ZM258.333 40.888V38.888H256.333V40.888H258.333ZM258.333 46.712H256.333V48.712H258.333V46.712ZM277.149 46.712H279.149V44.712H277.149V46.712ZM277.149 59V61H279.149V59H277.149ZM242.973 59H240.973V61H242.973V59ZM242.973 11V9H240.973V11H242.973ZM276.765 11L278.741 11.3087L279.101 9H276.765V11ZM274.845 23.288V25.288H276.556L276.821 23.5968L274.845 23.288ZM258.333 23.288V21.288H256.333V23.288H258.333ZM258.333 29.752H256.333V31.752H258.333V29.752ZM271.693 29.752V40.888H275.693V29.752H271.693ZM273.693 38.888H258.333V42.888H273.693V38.888ZM256.333 40.888V46.712H260.333V40.888H256.333ZM258.333 48.712H277.149V44.712H258.333V48.712ZM275.149 46.712V59H279.149V46.712H275.149ZM277.149 57H242.973V61H277.149V57ZM244.973 59V11H240.973V59H244.973ZM242.973 13H276.765V9H242.973V13ZM274.788 10.6912L272.868 22.9792L276.821 23.5968L278.741 11.3087L274.788 10.6912ZM274.845 21.288H258.333V25.288H274.845V21.288ZM256.333 23.288V29.752H260.333V23.288H256.333ZM258.333 31.752H273.693V27.752H258.333V31.752ZM331.276 43L330.369 41.2176L328.571 42.1327L329.502 43.9227L331.276 43ZM339.596 59V61H342.89L341.37 58.0773L339.596 59ZM322.7 59L320.869 59.8047L321.394 61H322.7V59ZM316.428 44.728L318.259 43.9233L317.734 42.728H316.428V44.728ZM313.1 44.728V42.728H311.1V44.728H313.1ZM313.1 59V61H315.1V59H313.1ZM297.74 59H295.74V61H297.74V59ZM297.74 11V9H295.74V11H297.74ZM313.1 23.288V21.288H311.1V23.288H313.1ZM313.1 32.888H311.1V34.888H313.1V32.888ZM320.652 32.312L319.831 30.4882L319.813 30.4962L319.796 30.5045L320.652 32.312ZM320.652 23.864L319.796 25.6715L319.813 25.6798L319.831 25.6878L320.652 23.864ZM329.502 43.9227L337.822 59.9227L341.37 58.0773L333.05 42.0773L329.502 43.9227ZM339.596 57H322.7V61H339.596V57ZM324.531 58.1953L318.259 43.9233L314.597 45.5327L320.869 59.8047L324.531 58.1953ZM316.428 42.728H313.1V46.728H316.428V42.728ZM311.1 44.728V59H315.1V44.728H311.1ZM313.1 57H297.74V61H313.1V57ZM299.74 59V11H295.74V59H299.74ZM297.74 13H321.932V9H297.74V13ZM321.932 13C327.118 13 330.642 14.3189 332.888 16.6086C335.141 18.9053 336.444 22.5201 336.444 27.832H340.444C340.444 21.9226 338.995 17.1213 335.744 13.8074C332.486 10.4864 327.754 9 321.932 9V13ZM336.444 27.832C336.444 35.1285 334.202 39.2669 330.369 41.2176L332.183 44.7824C337.908 41.8691 340.444 35.8955 340.444 27.832H336.444ZM316.62 21.288H313.1V25.288H316.62V21.288ZM311.1 23.288V32.888H315.1V23.288H311.1ZM313.1 34.888H316.62V30.888H313.1V34.888ZM316.62 34.888C318.539 34.888 320.269 34.7066 321.508 34.1195L319.796 30.5045C319.414 30.6854 318.456 30.888 316.62 30.888V34.888ZM321.473 34.1358C323.359 33.2872 323.932 31.4244 323.932 29.688H319.932C319.932 30.1816 319.852 30.4141 319.814 30.4912C319.799 30.5228 319.795 30.5208 319.81 30.506C319.826 30.4903 319.838 30.4851 319.831 30.4882L321.473 34.1358ZM323.932 29.688V26.488H319.932V29.688H323.932ZM323.932 26.488C323.932 24.7516 323.359 22.8888 321.473 22.0402L319.831 25.6878C319.838 25.6909 319.826 25.6857 319.81 25.67C319.795 25.6552 319.799 25.6532 319.814 25.6848C319.852 25.7619 319.932 25.9944 319.932 26.488H323.932ZM321.508 22.0565C320.269 21.4694 318.539 21.288 316.62 21.288V25.288C318.456 25.288 319.414 25.4906 319.796 25.6715L321.508 22.0565Z" fill="#AD88C6" mask="url(#path-3-outside-2_627_67)"/>
</g>
<path d="M149.6 105.28C149.02 105.28 148.44 105.237 147.86 105.15C147.28 105.063 146.743 104.953 146.25 104.82C145.757 104.68 145.347 104.533 145.02 104.38L145.28 102.36C145.64 102.533 146.073 102.713 146.58 102.9C147.093 103.087 147.647 103.243 148.24 103.37C148.833 103.497 149.433 103.56 150.04 103.56C150.94 103.56 151.653 103.397 152.18 103.07C152.713 102.737 152.98 102.22 152.98 101.52C152.98 100.993 152.847 100.563 152.58 100.23C152.313 99.89 151.91 99.6 151.37 99.36C150.837 99.12 150.167 98.88 149.36 98.64C148.593 98.4133 147.887 98.1467 147.24 97.84C146.593 97.5267 146.073 97.11 145.68 96.59C145.293 96.0633 145.1 95.3667 145.1 94.5C145.1 93.76 145.29 93.1067 145.67 92.54C146.057 91.9667 146.62 91.52 147.36 91.2C148.107 90.88 149.02 90.72 150.1 90.72C151.02 90.72 151.863 90.82 152.63 91.02C153.403 91.22 154.04 91.44 154.54 91.68L154.34 93.7C153.58 93.2467 152.853 92.9233 152.16 92.73C151.473 92.5367 150.76 92.44 150.02 92.44C149.2 92.44 148.52 92.5933 147.98 92.9C147.447 93.2067 147.18 93.7067 147.18 94.4C147.18 94.8667 147.3 95.25 147.54 95.55C147.78 95.8433 148.137 96.0967 148.61 96.31C149.083 96.5167 149.673 96.7267 150.38 96.94C151.353 97.2333 152.19 97.57 152.89 97.95C153.59 98.3233 154.127 98.7867 154.5 99.34C154.873 99.8867 155.06 100.567 155.06 101.38C155.06 101.98 154.947 102.52 154.72 103C154.493 103.48 154.153 103.89 153.7 104.23C153.247 104.57 152.677 104.83 151.99 105.01C151.31 105.19 150.513 105.28 149.6 105.28ZM161.68 105V91H170.22V92.72H163.58V96.82H168.86V98.54H163.58V103.28H170.4V105H161.68ZM177.154 105V91H185.694V92.72H179.054V96.82H184.334V98.54H179.054V103.28H185.874V105H177.154ZM192.628 105V91H194.688L201.588 101.48V91H203.508V105H201.888L194.528 93.94V105H192.628Z" fill="#AD88C6"/>
<defs>
<filter id="filter0_d_627_67" x="7.84" y="11" width="335.756" height="56" filterUnits="userSpaceOnUse" color-interpolation-filters="sRGB">
<feFlood flood-opacity="0" result="BackgroundImageFix"/>
<feColorMatrix in="SourceAlpha" type="matrix" values="0 0 0 0 0 0 0 0 0 0 0 0 0 0 0 0 0 0 127 0" result="hardAlpha"/>
<feOffset dy="4"/>
<feGaussianBlur stdDeviation="2"/>
<feComposite in2="hardAlpha" operator="out"/>
<feColorMatrix type="matrix" values="0 0 0 0 0 0 0 0 0 0 0 0 0 0 0 0 0 0 0.25 0"/>
<feBlend mode="normal" in2="BackgroundImageFix" result="effect1_dropShadow_627_67"/>
<feBlend mode="normal" in="SourceGraphic" in2="effect1_dropShadow_627_67" result="shape"/>
</filter>
</defs>
</svg>
