<svg viewBox="0 0 90 75" fill="none" xmlns="http://www.w3.org/2000/svg">
<path d="M48.36 18C49.32 18 50.1 18.32 50.7 18.96C51.3 19.6 51.6 20.4 51.6 21.36V56.34C51.6 57.38 51.24 58.26 50.52 58.98C49.84 59.66 48.98 60 47.94 60C47.42 60 46.88 59.92 46.32 59.76C45.8 59.56 45.4 59.3 45.12 58.98L21.54 29.04L23.1 28.08V56.64C23.1 57.6 22.78 58.4 22.14 59.04C21.54 59.68 20.74 60 19.74 60C18.78 60 18 59.68 17.4 59.04C16.8 58.4 16.5 57.6 16.5 56.64V21.66C16.5 20.62 16.84 19.76 17.52 19.08C18.24 18.36 19.12 18 20.16 18C20.72 18 21.3 18.12 21.9 18.36C22.5 18.56 22.94 18.88 23.22 19.32L46.08 48.48L45.06 49.2V21.36C45.06 20.4 45.36 19.6 45.96 18.96C46.56 18.32 47.36 18 48.36 18ZM73.1011 60.6C69.9811 60.64 67.3011 60.12 65.0611 59.04C62.8211 57.96 60.6611 56.38 58.5811 54.3C58.5011 54.22 58.4211 54.12 58.3411 54C58.2611 53.84 58.2211 53.64 58.2211 53.4C58.2211 53.08 58.3611 52.78 58.6411 52.5C58.9211 52.18 59.2211 52.02 59.5411 52.02C59.9011 52.02 60.2411 52.2 60.5611 52.56C62.1611 54.4 64.0211 55.8 66.1411 56.76C68.3011 57.72 70.5411 58.2 72.8611 58.2C74.9011 58.2 76.7211 57.88 78.3211 57.24C79.9211 56.56 81.1811 55.62 82.1011 54.42C83.0211 53.18 83.4811 51.74 83.4811 50.1C83.4411 48.06 82.8811 46.42 81.8011 45.18C80.7211 43.94 79.3211 42.92 77.6011 42.12C75.9211 41.32 74.1411 40.58 72.2611 39.9C70.7811 39.34 69.3211 38.76 67.8811 38.16C66.4411 37.56 65.1411 36.84 63.9811 36C62.8211 35.12 61.9011 34.04 61.2211 32.76C60.5411 31.44 60.2011 29.82 60.2011 27.9C60.2011 25.94 60.7211 24.18 61.7611 22.62C62.8411 21.02 64.3611 19.76 66.3211 18.84C68.3211 17.88 70.6811 17.4 73.4011 17.4C75.6811 17.4 77.9011 17.82 80.0611 18.66C82.2211 19.46 83.9211 20.68 85.1611 22.32C85.5611 22.88 85.7611 23.3 85.7611 23.58C85.7611 23.86 85.6011 24.14 85.2811 24.42C85.0011 24.7 84.6811 24.84 84.3211 24.84C84.0011 24.84 83.7411 24.72 83.5411 24.48C82.8211 23.52 81.9411 22.7 80.9011 22.02C79.9011 21.3 78.7611 20.76 77.4811 20.4C76.2011 20 74.8411 19.8 73.4011 19.8C71.4411 19.8 69.6611 20.12 68.0611 20.76C66.4611 21.4 65.1811 22.32 64.2211 23.52C63.2611 24.68 62.7811 26.12 62.7811 27.84C62.7811 29.68 63.3011 31.2 64.3411 32.4C65.4211 33.56 66.7811 34.54 68.4211 35.34C70.0611 36.1 71.7411 36.8 73.4611 37.44C74.9811 37.96 76.4811 38.54 77.9611 39.18C79.4811 39.78 80.8411 40.54 82.0411 41.46C83.2811 42.38 84.2611 43.54 84.9811 44.94C85.7011 46.34 86.0611 48.1 86.0611 50.22C86.0611 52.06 85.5211 53.76 84.4411 55.32C83.4011 56.88 81.9211 58.14 80.0011 59.1C78.0811 60.06 75.7811 60.56 73.1011 60.6Z" fill="#6B9080"/>
<path fill-rule="evenodd" clip-rule="evenodd" d="M7 14H66V20H68V14V12H66H7H5V14V61V63H7H66H68V61V58H66V61H7V14Z" fill="#6B9080"/>
<path fill-rule="evenodd" clip-rule="evenodd" d="M2 5H62V14H64V5V3H62H2H0V5V50V52H2H5V50H2V5Z" fill="#6B9080"/>
</svg>
