<svg width="108" height="82" viewBox="0 0 108 82" fill="none" xmlns="http://www.w3.org/2000/svg">
<path d="M46.464 59H32L20.288 41.976C20.0747 41.6773 19.904 41.2293 19.776 40.632C19.648 40.0347 19.5627 39.2453 19.52 38.264H19.2V59H3.84V11H18.304L30.016 28.024C30.2293 28.3227 30.4 28.7707 30.528 29.368C30.656 29.9653 30.7413 30.7547 30.784 31.736H31.104V11H46.464V59ZM58.6325 58.168L60.8085 45.496C65.5018 46.648 69.7472 47.224 73.5445 47.224C75.4645 47.224 77.1498 47.2027 78.6005 47.16C80.0938 47.0747 81.4165 46.9467 82.5685 46.776V42.936L75.6565 42.36C72.5418 42.0613 69.9392 41.5493 67.8485 40.824C65.7578 40.0987 64.0725 39.1173 62.7925 37.88C61.5552 36.6 60.6592 35.0853 60.1045 33.336C59.5925 31.544 59.3365 29.4533 59.3365 27.064C59.3365 23.7787 59.6778 21.048 60.3605 18.872C61.0432 16.6533 62.1312 14.8827 63.6245 13.56C65.1178 12.1947 67.0378 11.2347 69.3845 10.68C71.7738 10.1253 74.6752 9.848 78.0885 9.848C84.8725 9.848 91.0165 10.488 96.5205 11.768L94.6005 24.056C89.8218 23.288 86.0032 22.904 83.1445 22.904C80.2858 22.904 77.8538 23.032 75.8485 23.288V27.064L81.3525 27.576C84.7232 27.9173 87.5392 28.4933 89.8005 29.304C92.0618 30.072 93.8752 31.096 95.2405 32.376C96.6485 33.656 97.6298 35.1707 98.1845 36.92C98.7818 38.6693 99.0805 40.6747 99.0805 42.936C99.0805 46.1787 98.6538 48.9093 97.8005 51.128C96.9472 53.3467 95.9232 55.032 94.7285 56.184C93.7472 57.1227 92.5312 57.8693 91.0805 58.424C89.6298 58.936 88.0938 59.32 86.4725 59.576C84.8512 59.832 83.2085 59.9813 81.5445 60.024C79.9232 60.1093 78.4512 60.152 77.1285 60.152C73.8005 60.152 70.6005 59.9813 67.5285 59.64C64.4565 59.2987 61.4912 58.808 58.6325 58.168Z" fill="black"/>
<path d="M52.464 61H38L26.288 43.976C26.0747 43.6773 25.904 43.2293 25.776 42.632C25.648 42.0347 25.5627 41.2453 25.52 40.264H25.2V61H9.84V13H24.304L36.016 30.024C36.2293 30.3227 36.4 30.7707 36.528 31.368C36.656 31.9653 36.7413 32.7547 36.784 33.736H37.104V13H52.464V61Z" fill="#AD88C6"/>
<path d="M64.6325 60.168L66.8085 47.496C71.5018 48.648 75.7472 49.224 79.5445 49.224C81.4645 49.224 83.1498 49.2027 84.6005 49.16C86.0938 49.0747 87.4165 48.9467 88.5685 48.776V44.936L81.6565 44.36C78.5418 44.0613 75.9392 43.5493 73.8485 42.824C71.7578 42.0987 70.0725 41.1173 68.7925 39.88C67.5552 38.6 66.6592 37.0853 66.1045 35.336C65.5925 33.544 65.3365 31.4533 65.3365 29.064C65.3365 25.7787 65.6778 23.048 66.3605 20.872C67.0432 18.6533 68.1312 16.8827 69.6245 15.56C71.1178 14.1947 73.0378 13.2347 75.3845 12.68C77.7738 12.1253 80.6752 11.848 84.0885 11.848C90.8725 11.848 97.0165 12.488 102.521 13.768L100.601 26.056C95.8218 25.288 92.0032 24.904 89.1445 24.904C86.2858 24.904 83.8538 25.032 81.8485 25.288V29.064L87.3525 29.576C90.7232 29.9173 93.5392 30.4933 95.8005 31.304C98.0618 32.072 99.8752 33.096 101.241 34.376C102.649 35.656 103.63 37.1707 104.185 38.92C104.782 40.6693 105.081 42.6747 105.081 44.936C105.081 48.1787 104.654 50.9093 103.801 53.128C102.947 55.3467 101.923 57.032 100.729 58.184C99.7472 59.1227 98.5312 59.8693 97.0805 60.424C95.6298 60.936 94.0938 61.32 92.4725 61.576C90.8512 61.832 89.2085 61.9813 87.5445 62.024C85.9232 62.1093 84.4512 62.152 83.1285 62.152C79.8005 62.152 76.6005 61.9813 73.5285 61.64C70.4565 61.2987 67.4912 60.808 64.6325 60.168Z" fill="#E1AFD1"/>
</svg>
